<svg xmlns="http://www.w3.org/2000/svg" viewBox="0 0 900 600">
<defs><linearGradient id="room" x2=".7" y2="1"><stop stop-color="#f3f1e9"/><stop offset="1" stop-color="#d9e3df"/></linearGradient><linearGradient id="metal" x2="0" y2="1"><stop stop-color="#b5c0bc"/><stop offset="1" stop-color="#7d8b87"/></linearGradient><linearGradient id="screen" x2="1" y2="1"><stop stop-color="#fffef7"/><stop offset="1" stop-color="#e1ece8"/></linearGradient><filter id="soft"><feGaussianBlur stdDeviation="11"/></filter></defs>
<rect width="900" height="600" fill="url(#room)"/><path d="M0 439 900 371V600H0Z" fill="#ddd8c8"/><ellipse cx="448" cy="477" rx="262" ry="27" fill="#6e7971" opacity=".17" filter="url(#soft)"/>
<g transform="rotate(-3 450 350)"><rect x="229" y="131" width="458" height="323" rx="19" fill="#667875" stroke="#50615d" stroke-width="3"/><rect x="245" y="149" width="427" height="280" rx="7" fill="url(#screen)"/><circle cx="458" cy="141" r="3" fill="#bdc9c0"/><path d="M199 454h521l-41 46H241Z" fill="url(#metal)" stroke="#778682"/><path d="M226 461h467l-17 18H244Z" fill="#73847d"/><g stroke="#adbcb3" stroke-width="2"><path d="M245 467h426m-406-6-5 17m35-17-4 17m35-17-3 17m35-17-2 17m35-17-1 17m35-17v17m35-17 1 17m35-17 2 17m35-17 3 17m35-17 4 17m35-17 5 17m35-17 6 17"/></g><path d="M391 482h132l-6 10H397Z" fill="#a6b4ac"/>
<rect x="271" y="176" width="191" height="89" rx="13" fill="#c8ded4"/><path d="m286 263 3 20 23-20" fill="#c8ded4"/><g stroke="#709985" stroke-width="8" stroke-linecap="round"><path d="M290 196h134m-134 21h144m-144 21h84"/></g>
<rect x="398" y="294" width="245" height="105" rx="13" fill="#e2d4b8"/><g stroke="#a7916f" stroke-width="7" stroke-linecap="round"><path d="M418 316h117m-117 20h199m-199 20h168m-168 20h112"/></g>
<g transform="translate(497 168)"><rect width="137" height="102" rx="11" fill="#e1edf0"/><path d="M13 72q30-8 57 0t57 0m-114 16q30-8 57 0t57 0" stroke="#8eb3c0" stroke-width="3" fill="none"/><path d="m28 53 37-29 17 29 20-29 19 29-17 22H46Z" fill="#fff9e6" stroke="#b4a57d"/><path d="m28 53 54 0 22 22m-39-51 17 29 20-29m-56 51 36-22 39 0" stroke="#d6c8a4" fill="none"/></g></g>
<g transform="rotate(7 160 470)"><path d="M71 370h136v154H71Z" fill="#fffdf6" stroke="#c3bcaa"/><path d="m98 444 35-44 40 44Z" fill="#cee0d5" stroke="#7a9f8b" stroke-width="3"/><path d="M93 469h84m-84 16h70m-70 16h54" stroke="#c8c3b4" stroke-width="3"/></g>
<g transform="rotate(18 740 443)"><path d="M721 342h14v188h-14Z" fill="#b19b6a"/><path d="m721 530 7 22 7-22Z" fill="#e5ce9f"/><path d="m726 546 2 6 2-6Z" fill="#596059"/><rect x="721" y="333" width="14" height="18" rx="3" fill="#ad7d75"/></g>
</svg>
