<svg xmlns="http://www.w3.org/2000/svg" viewBox="0 0 640 400"><defs><linearGradient id="bg" x2="1" y2="1"><stop stop-color="#faf4e6"/><stop offset="1" stop-color="#e2dfc8"/></linearGradient><linearGradient id="wall" x2="1" y2="1"><stop stop-color="#f0cdb0"/><stop offset=".5" stop-color="#d29b81"/><stop offset="1" stop-color="#aa705c"/></linearGradient><linearGradient id="liver" x2="1" y2="1"><stop stop-color="#be9078"/><stop offset="1" stop-color="#885b48"/></linearGradient><filter id="s"><feDropShadow dy="6" stdDeviation="6" flood-color="#68533d" flood-opacity=".16"/></filter></defs><rect width="640" height="400" fill="url(#bg)"/><g filter="url(#s)"><path d="M306 19V99Q306 119 318 129" fill="none" stroke="#ae7c65" stroke-width="25"/><path d="M306 19V99Q306 119 318 129" fill="none" stroke="url(#wall)" stroke-width="19"/><path d="M318 120Q341 132 352 112C393 86 423 119 425 154Q429 204 375 207Q329 192 281 194L267 177Q301 171 310 153Z" fill="url(#wall)" stroke="#b37d66" stroke-width="2"/><path d="M343 130q36 29 13 58m14-66q45 32 18 68" fill="none" stroke="#bc8169" stroke-width="2"/><path d="M194 104Q245 78 299 103L299 134Q254 177 182 151Q158 127 194 104Z" fill="url(#liver)" stroke="#9b6c53" stroke-width="2"/><path d="M192 111Q241 91 283 108" fill="none" stroke="#dbb395" stroke-width="3" opacity=".6"/><path d="M247 143q27-4 21 16q-9 22-22 5Z" fill="#98a270"/><path d="M250 184Q285 161 320 179Q359 176 382 192Q341 210 304 194Q277 204 250 194Z" fill="#d7c391" stroke="#b39e6b" stroke-width="2"/><path d="M263 156V176L254 205M369 191L273 188L254 205" fill="none" stroke="#909967" stroke-width="4"/><path d="M254 205Q223 224 253 245Q305 214 365 242Q395 257 356 275Q298 290 253 265Q218 276 249 301Q287 312 340 299Q382 305 349 326Q284 313 249 337L226 344" fill="none" stroke="#b47a63" stroke-width="26" stroke-linecap="round"/><path d="M254 205Q223 224 253 245Q305 214 365 242Q395 257 356 275Q298 290 253 265Q218 276 249 301Q287 312 340 299Q382 305 349 326Q284 313 249 337L226 344" fill="none" stroke="url(#wall)" stroke-width="21" stroke-linecap="round"/><path d="M226 344V229Q224 211 246 211H395Q418 211 418 239V327Q413 356 360 354L337 380" fill="none" stroke="#a7725e" stroke-width="36" stroke-linejoin="round" stroke-linecap="round"/><path d="M226 344V229Q224 211 246 211H395Q418 211 418 239V327Q413 356 360 354L337 380" fill="none" stroke="url(#wall)" stroke-width="29" stroke-linejoin="round" stroke-linecap="round"/></g><g fill="#b38b43" stroke="#efd297" stroke-width="1.5"><circle cx="310" cy="275" r="5"/><circle cx="320" cy="276" r="4"/><circle cx="304" cy="281" r="3"/></g><path d="M471 270Q477 157 515 161Q549 169 554 270Z" fill="#e5c6a5" stroke="#b7846a" stroke-width="2"/><path d="M489 270V213Q491 176 514 180Q537 185 537 221V270" fill="none" stroke="#b97a6b" stroke-width="5"/><path d="M515 270V205" stroke="#91aa89" stroke-width="8" stroke-linecap="round"/><path d="M385 278L454 235" stroke="#ac9674" stroke-width="1.5" stroke-dasharray="4 5"/></svg>
