<svg id="cover" viewBox="0 0 1000 480" xmlns="http://www.w3.org/2000/svg" role="img" aria-label="互动观察图"><defs><linearGradient id="water" x2="0" y2="1"><stop stop-color="#dff3f0"/><stop offset="1" stop-color="#7cbfc1"/></linearGradient><marker id="arrow" markerWidth="8" markerHeight="8" refX="6" refY="3" orient="auto"><path d="M0 0L6 3L0 6" fill="none" stroke="#267d96" stroke-width="1.8"/></marker></defs><rect width="1000" height="480" fill="url(#water)"/><g stroke="#eaf9f5" stroke-width="3" fill="none" opacity=".7"><path d="M23 98h90m650-18h155M70 391h80m590 23h179"/></g><path d="M335 257L171 157Q207 263 165 361L337 301" fill="#d8a36b" stroke="#906943" stroke-width="5"/><path d="M418 209Q465 114 533 173L559 225M425 326Q472 390 525 319" fill="#deba7d" stroke="#a28055" stroke-width="5"/><path d="M287 279C372 154 603 161 692 257L725 278L690 294C588 371 376 390 287 279Z" fill="#edca8c" stroke="#997344" stroke-width="5"/><path d="M348 290Q459 321 545 254Q512 339 424 330" fill="#d8aa71"/><path d="M608 216Q561 273 610 325" fill="none" stroke="#ae784f" stroke-width="7"/><circle cx="653" cy="253" r="14" fill="#f8f0d1"/><circle cx="656" cy="254" r="7" fill="#3d4a47"/><g id="gill-detail"><circle cx="280" cy="123" r="92" fill="#fff9e6" stroke="#6ba2a3" stroke-width="4"/><path d="M351 187L580 261" stroke="#6ba2a3" stroke-width="2" stroke-dasharray="6 7"/><g fill="none" stroke="#d46a68" stroke-width="8" stroke-linecap="round"><path d="M240 70q-20 54 0 105"/><path d="M258 70q-20 54 0 105"/><path d="M276 70q-20 54 0 105"/><path d="M294 70q-20 54 0 105"/><path d="M312 70q-20 54 0 105"/></g><g fill="none" stroke="#983f56" stroke-width="2"><path d="M230 95l16 6m-20 10l17 6m-17 10l18 6m-15 10l18 6"/><path d="M248 95l16 6m-20 10l17 6m-17 10l18 6m-15 10l18 6"/><path d="M266 95l16 6m-20 10l17 6m-17 10l18 6m-15 10l18 6"/><path d="M284 95l16 6m-20 10l17 6m-17 10l18 6m-15 10l18 6"/><path d="M302 95l16 6m-20 10l17 6m-17 10l18 6m-15 10l18 6"/></g></g><g id="flow-in"><path d="M884 279H728" stroke="#267d96" stroke-width="8" fill="none" marker-end="url(#arrow)"/></g><g id="flow-gill" visibility="hidden"><path d="M711 285Q653 289 599 274" stroke="#267d96" stroke-width="8" fill="none" marker-end="url(#arrow)"/></g><g id="flow-out" visibility="hidden"><path d="M593 285Q557 347 580 397" stroke="#267d96" stroke-width="8" fill="none" marker-end="url(#arrow)"/></g><g id="oxygen" fill="#f9d15e" stroke="#a9893b" stroke-width="2"><circle id="o0" cx="843" cy="252" r="10"/><circle id="o1" cx="807" cy="303" r="8"/><circle id="o2" cx="778" cy="256" r="9"/></g><g id="oxygen-blood" visibility="hidden" fill="#f9d15e" stroke="#a9893b" stroke-width="2"><circle cx="250" cy="104" r="7"/><circle cx="280" cy="142" r="7"/><circle cx="307" cy="107" r="7"/></g><g fill="#629a80"><path d="M76 480Q124 422 71 369Q40 405 76 480M114 480Q143 384 172 410Q179 443 114 480M906 480Q879 403 916 351Q954 416 906 480"/></g></svg>