<svg xmlns="http://www.w3.org/2000/svg" viewBox="0 0 800 500"><defs><linearGradient id="bg" x2="0" y2="1"><stop stop-color="#101e31"/><stop offset="1" stop-color="#254152"/></linearGradient><radialGradient id="earth" cx=".25" cy=".3"><stop stop-color="#7eb4b7"/><stop offset=".5" stop-color="#296e92"/><stop offset="1" stop-color="#132532"/></radialGradient><radialGradient id="moon" cx=".25" cy=".3"><stop stop-color="#e1ddd1"/><stop offset=".6" stop-color="#939b9a"/><stop offset="1" stop-color="#303c47"/></radialGradient><linearGradient id="lava" x2="0" y2="1"><stop stop-color="#ffd679"/><stop offset="1" stop-color="#b55337"/></linearGradient></defs><rect width="800" height="500" fill="url(#bg)"/><path d="M0 315h252q22-26 40-8 70 126 144 0 16-17 40 8h324v185H0z" fill="#7c817e" stroke="#b9c2bb" stroke-width="3"/><path d="M0 394h800M0 431h800" stroke="#a4a293" opacity=".3"/><path d="M141 104l31 29 30-15 9-37-42-22z" fill="url(#moon)"/><path d="M202 147l131 135" stroke="#bcbdaf" stroke-dasharray="7 10"/><g fill="#d5d2bb"><circle cx="250" cy="220" r="5"/><circle cx="224" cy="262" r="4"/><circle cx="446" cy="213" r="6"/><circle cx="480" cy="251" r="4"/><circle cx="418" cy="182" r="4"/></g><circle cx="620" cy="137" r="55" fill="#8b928a"/><circle cx="620" cy="137" r="40" fill="#36454d" stroke="#c5c8b5" stroke-width="3"/></svg>
