<svg xmlns="http://www.w3.org/2000/svg" viewBox="0 0 800 500"><defs><linearGradient id="bg" x2="0" y2="1"><stop stop-color="#101e31"/><stop offset="1" stop-color="#254152"/></linearGradient><radialGradient id="earth" cx=".25" cy=".3"><stop stop-color="#7eb4b7"/><stop offset=".5" stop-color="#296e92"/><stop offset="1" stop-color="#132532"/></radialGradient><radialGradient id="moon" cx=".25" cy=".3"><stop stop-color="#e1ddd1"/><stop offset=".6" stop-color="#939b9a"/><stop offset="1" stop-color="#303c47"/></radialGradient><linearGradient id="lava" x2="0" y2="1"><stop stop-color="#ffd679"/><stop offset="1" stop-color="#b55337"/></linearGradient></defs><rect width="800" height="500" fill="url(#bg)"/><rect width="800" height="500" fill="#c3dade"/><path d="M0 230L117 167 246 237 391 181 580 220 713 160 800 221v279H0z" fill="#94b09f"/><path d="M0 358L181 234 240 218 259 352 541 352 560 218 619 234 800 358v142H0z" fill="#8b8170"/><path d="M250 278h300l-9 74H259z" fill="#4995ac"/><path d="M250 278h300" stroke="#daeee2" stroke-width="4"/><g fill="#f4f5e9"><ellipse cx="262" cy="133" rx="51" ry="21"/><ellipse cx="299" cy="126" rx="43" ry="24"/><ellipse cx="528" cy="122" rx="57" ry="23"/></g><g stroke="#80afbc" stroke-width="3"><path d="M270 168l-4 26m35-20-4 26m225-32-4 26m30-10-4 26"/></g></svg>
