<svg xmlns="http://www.w3.org/2000/svg" viewBox="0 0 640 400"><defs><pattern id="d" width="28" height="28" patternUnits="userSpaceOnUse"><circle cx="2" cy="2" r="1.1" fill="#a9bda3" opacity=".4"/></pattern></defs><rect width="640" height="400" fill="#edf5e8"/><rect width="640" height="400" fill="url(#d)"/><circle cx="320" cy="201" r="162" fill="#e4efda"/><g transform="rotate(-20 320 200)"><rect x="129" y="99" width="382" height="202" rx="101" fill="#a4c88a" stroke="#69946b" stroke-width="4"/><rect x="143" y="113" width="354" height="174" rx="87" fill="#e6edb8" stroke="#4f805d" stroke-width="6"/><path d="M228 205C228 155 267 158 285 202S316 238 331 196S365 157 385 200S427 235 424 199C424 164 394 165 377 201S341 242 321 200S282 162 264 201S227 246 228 205" fill="none" stroke="#946fab" stroke-width="8" stroke-linecap="round"/><g fill="#d9a150" stroke="#ac7c38" stroke-width="1.5"><circle cx="186" cy="201" r="6"/><circle cx="215" cy="147" r="6"/><circle cx="250" cy="260" r="6"/><circle cx="298" cy="141" r="6"/><circle cx="328" cy="263" r="6"/><circle cx="393" cy="147" r="6"/><circle cx="452" cy="198" r="6"/><circle cx="410" cy="253" r="6"/></g></g><g fill="#84b598" stroke="#4e8768" stroke-width="3"><circle cx="90" cy="74" r="19"/><circle cx="119" cy="85" r="17"/><rect x="503" y="290" width="74" height="28" rx="14" transform="rotate(25 540 304)"/></g><path d="M65 324q14-34 28 0t28 0" stroke="#8e71a1" stroke-width="10" fill="none" stroke-linecap="round"/></svg>
