<svg xmlns="http://www.w3.org/2000/svg" viewBox="0 0 1200 760"><defs><linearGradient id="sky" x2="0" y2="1"><stop stop-color="#819daf"/><stop offset="1" stop-color="#d8d7c2"/></linearGradient><linearGradient id="cloud" x2=".2" y2="1"><stop stop-color="#e5e7df"/><stop offset=".4" stop-color="#adbfcb"/><stop offset="1" stop-color="#566f87"/></linearGradient><filter id="glow"><feGaussianBlur stdDeviation="7"/></filter><filter id="soft"><feGaussianBlur stdDeviation="16"/></filter></defs><path fill="url(#sky)" d="M0 0h1200v760H0z"/><path d="M0 541 160 484 317 529 468 478 649 518 795 499 912 524 1058 480 1200 514V760H0" fill="#a4b4a9"/><path d="M0 587Q128 555 288 590T598 577 1200 572V760H0" fill="#82937a"/><path d="M50 130C169 65 225 120 299 108C294 24 414 15 458 82C535 48 621 88 636 133C790 83 908 115 1102 90C1007 170 880 162 793 210C768 258 706 253 667 300C627 351 541 330 509 340C415 365 374 316 315 327C269 315 237 267 239 229C169 180 120 158 50 130" fill="url(#cloud)"/><g fill="#eef0e7" opacity=".36" filter="url(#soft)"><ellipse cx="382" cy="151" rx="150" ry="90"/><ellipse cx="581" cy="191" rx="157" ry="74"/></g><path id="bolt" d="m564 324-26 36 18 26-34 24 22 28-45 34 19 25-20 35 39 48" fill="none" stroke="#ede2ff" stroke-width="10" filter="url(#glow)"/><path d="m564 324-26 36 18 26-34 24 22 28-45 34 19 25-20 35 39 48" fill="none" stroke="#fffdfb" stroke-width="3"/><path d="m556 386 42 17 9 23 26 14m-134 32-32 4-16 20-25 2" fill="none" stroke="#d9d8ed" stroke-width="1.5"/><g fill="none" stroke="#aeb0ce" opacity=".7"><path d="M340 580a197 197 0 0 1 394 0"/><path d="M322 580a215 215 0 0 1 430 0"/></g><path d="M961 576v-61h84v61" fill="#dcd5b5"/><path d="m948 515 54-37 55 37" fill="#6e7e86"/><path d="M975 530h18v21h-18z" fill="#eddaa2"/></svg>
