<svg xmlns="http://www.w3.org/2000/svg" width="960" height="640" viewBox="0 0 960 640"><defs><linearGradient id="sky" x2="0" y2="1"><stop stop-color="#b8d2d8"/><stop offset="1" stop-color="#f1eed6"/></linearGradient><linearGradient id="land" x2="0" y2="1"><stop stop-color="#91ad93"/><stop offset="1" stop-color="#547a69"/></linearGradient></defs><path fill="url(#sky)" d="M0 0h960v640H0z"/><circle fill="#f8e6b3" cx="765" cy="125" r="42"/><path fill="#adbfa9" d="M0 436Q190 295 410 427T960 376v264H0z"/><path fill="url(#land)" d="M0 473Q190 439 367 485T960 453v187H0z"/><path fill="#83b2b6" d="M0 481Q142 477 290 495T492 508Q418 570 473 640H0z"/><g fill="none" stroke="#f8faf0" stroke-width="5" stroke-linecap="round" opacity=".85"><path d="M50 245C190 211 291 270 433 212S681 147 840 193"/><path d="M24 292C201 260 291 315 439 255S711 216 876 242"/><path d="M122 339C268 319 386 371 527 301S763 278 917 292"/></g><g fill="none" stroke="#4c7f83" stroke-width="4" stroke-linecap="round"><path d="m411 200 23 12-13 20M417 244l23 11-12 22M507 289l21 12-12 23"/></g><path d="M698 531V372" stroke="#667c6b" stroke-width="9"/><g fill="#f5f0de"><path d="M698 372q-4-71 17-99l-8 90zM698 372q68 10 87 45l-78-33zM698 372q-32 61-69 65l57-55z"/><circle cx="698" cy="372" r="11"/></g><g stroke="#65856b" fill="none" stroke-width="3"><path d="m548 571 3-44 10-17m-8 26 16-12m-19 25-12-17M828 584l-3-44 12-22m-11 33-15-16"/></g></svg>
