<svg xmlns="http://www.w3.org/2000/svg" viewBox="0 0 800 500"><defs><radialGradient id="g"><stop stop-color="#354752"/><stop offset="1" stop-color="#18262f"/></radialGradient></defs><rect width="800" height="500" fill="url(#g)"/><circle cx="665" cy="115" r="75" fill="#465664" opacity=".12"/><rect x="140" y="260" width="540" height="190" rx="95" fill="#527d6c" stroke="#a6cba2" stroke-width="8"/><rect x="153" y="273" width="514" height="164" rx="82" fill="none" stroke="#adc39a" stroke-opacity=".45" stroke-width="2"/><path d="M295 365c-35-70 100-85 92-18s98 48 113-12-121-19-102 39" fill="none" stroke="#c4d4a2" stroke-width="6" opacity=".8"/><g transform="translate(395 110)" stroke="#cdb4fb" stroke-width="6" stroke-linejoin="round"><path d="M0-51 44-26 44 26 0 51-44 26-44-26Z" fill="#645080"/><path d="M0-51V51M-44-26 44 26M44-26-44 26" stroke-width="2" opacity=".6"/><path d="M0 51v70m-14-60h28m-28 14h28m-28 14h28m-28 14h28M0 121l-40 15-20 24M0 121l40 15 20 24M0 121v39" fill="none"/><path d="M-18-28q40-10 29 13t-20 21 26 25" fill="none" stroke="#f2d58c" stroke-width="5"/></g><g fill="#d9d7a0" opacity=".7"><ellipse cx="251" cy="329" rx="10" ry="6"/><ellipse cx="568" cy="386" rx="10" ry="6"/><ellipse cx="305" cy="414" rx="10" ry="6"/><ellipse cx="537" cy="310" rx="10" ry="6"/></g></svg>